<svg xmlns="http://www.w3.org/2000/svg" viewBox="0 0 32 32" width="32" height="32">
  <defs>
    <linearGradient id="grad" x1="0%" y1="0%" x2="100%" y2="100%">
      <stop offset="0%" style="stop-color:#1e40af;stop-opacity:1" />
      <stop offset="100%" style="stop-color:#3b82f6;stop-opacity:1" />
    </linearGradient>
  </defs>
  
  <!-- Main Tower -->
  <rect x="10" y="5" width="12" height="24" fill="url(#grad)" rx="1"/>
  
  <!-- Tower Windows -->
  <rect x="12" y="8" width="1.5" height="1.5" fill="#e5e7eb" rx="0.2"/>
  <rect x="15" y="8" width="1.5" height="1.5" fill="#e5e7eb" rx="0.2"/>
  <rect x="18.5" y="8" width="1.5" height="1.5" fill="#e5e7eb" rx="0.2"/>
  
  <rect x="12" y="12" width="1.5" height="1.5" fill="#e5e7eb" rx="0.2"/>
  <rect x="15" y="12" width="1.5" height="1.5" fill="#e5e7eb" rx="0.2"/>
  <rect x="18.5" y="12" width="1.5" height="1.5" fill="#e5e7eb" rx="0.2"/>
  
  <rect x="12" y="16" width="1.5" height="1.5" fill="#e5e7eb" rx="0.2"/>
  <rect x="15" y="16" width="1.5" height="1.5" fill="#e5e7eb" rx="0.2"/>
  <rect x="18.5" y="16" width="1.5" height="1.5" fill="#e5e7eb" rx="0.2"/>
  
  <rect x="12" y="20" width="1.5" height="1.5" fill="#e5e7eb" rx="0.2"/>
  <rect x="15" y="20" width="1.5" height="1.5" fill="#e5e7eb" rx="0.2"/>
  <rect x="18.5" y="20" width="1.5" height="1.5" fill="#e5e7eb" rx="0.2"/>
  
  <!-- Key Symbol -->
  <circle cx="25" cy="10" r="3" fill="#fbbf24" stroke="#f59e0b" stroke-width="0.5"/>
  <rect x="23.5" y="11" width="3" height="1" fill="#f59e0b" rx="0.5"/>
  <rect x="25.5" y="10" width="1" height="1" fill="#f59e0b"/>
  <rect x="25.5" y="12" width="1" height="0.5" fill="#f59e0b"/>
  
  <!-- Building Base -->
  <rect x="9" y="27" width="14" height="2" fill="#374151" rx="0.5"/>
  
  <!-- Side Buildings -->
  <rect x="4" y="15" width="4" height="14" fill="#6b7280" rx="0.5"/>
  <rect x="24" y="17.5" width="4" height="11.5" fill="#6b7280" rx="0.5"/>
  
  <!-- Side Building Windows -->
  <rect x="5" y="17" width="1" height="1" fill="#e5e7eb" rx="0.1"/>
  <rect x="6.5" y="17" width="1" height="1" fill="#e5e7eb" rx="0.1"/>
  <rect x="5" y="20" width="1" height="1" fill="#e5e7eb" rx="0.1"/>
  <rect x="6.5" y="20" width="1" height="1" fill="#e5e7eb" rx="0.1"/>
  <rect x="5" y="23" width="1" height="1" fill="#e5e7eb" rx="0.1"/>
  <rect x="6.5" y="23" width="1" height="1" fill="#e5e7eb" rx="0.1"/>
  
  <rect x="25" y="19.5" width="1" height="1" fill="#e5e7eb" rx="0.1"/>
  <rect x="26.5" y="19.5" width="1" height="1" fill="#e5e7eb" rx="0.1"/>
  <rect x="25" y="22.5" width="1" height="1" fill="#e5e7eb" rx="0.1"/>
  <rect x="26.5" y="22.5" width="1" height="1" fill="#e5e7eb" rx="0.1"/>
</svg>