<svg xmlns="http://www.w3.org/2000/svg" viewBox="0 0 192 192" width="192" height="192">
  <defs>
    <linearGradient id="towerGrad" x1="0%" y1="0%" x2="100%" y2="100%">
      <stop offset="0%" style="stop-color:#1e40af;stop-opacity:1" />
      <stop offset="100%" style="stop-color:#3b82f6;stop-opacity:1" />
    </linearGradient>
    <linearGradient id="keyGrad" x1="0%" y1="0%" x2="100%" y2="100%">
      <stop offset="0%" style="stop-color:#fbbf24;stop-opacity:1" />
      <stop offset="100%" style="stop-color:#f59e0b;stop-opacity:1" />
    </linearGradient>
  </defs>
  
  <!-- Background Circle -->
  <circle cx="96" cy="96" r="88" fill="#f8fafc" stroke="#e2e8f0" stroke-width="4"/>
  
  <!-- Main Tower -->
  <rect x="60" y="30" width="72" height="144" fill="url(#towerGrad)" rx="6"/>
  
  <!-- Tower Windows Pattern -->
  <g fill="#e5e7eb">
    <!-- Row 1 -->
    <rect x="72" y="48" width="9" height="9" rx="1.5"/>
    <rect x="90" y="48" width="9" height="9" rx="1.5"/>
    <rect x="108" y="48" width="9" height="9" rx="1.5"/>
    
    <!-- Row 2 -->
    <rect x="72" y="72" width="9" height="9" rx="1.5"/>
    <rect x="90" y="72" width="9" height="9" rx="1.5"/>
    <rect x="108" y="72" width="9" height="9" rx="1.5"/>
    
    <!-- Row 3 -->
    <rect x="72" y="96" width="9" height="9" rx="1.5"/>
    <rect x="90" y="96" width="9" height="9" rx="1.5"/>
    <rect x="108" y="96" width="9" height="9" rx="1.5"/>
    
    <!-- Row 4 -->
    <rect x="72" y="120" width="9" height="9" rx="1.5"/>
    <rect x="90" y="120" width="9" height="9" rx="1.5"/>
    <rect x="108" y="120" width="9" height="9" rx="1.5"/>
    
    <!-- Row 5 -->
    <rect x="72" y="144" width="9" height="9" rx="1.5"/>
    <rect x="90" y="144" width="9" height="9" rx="1.5"/>
    <rect x="108" y="144" width="9" height="9" rx="1.5"/>
  </g>
  
  <!-- Key Symbol -->
  <circle cx="150" cy="60" r="18" fill="url(#keyGrad)" stroke="#f59e0b" stroke-width="3"/>
  <rect x="141" y="66" width="18" height="6" fill="#f59e0b" rx="3"/>
  <rect x="153" y="60" width="6" height="6" fill="#f59e0b"/>
  <rect x="153" y="72" width="6" height="3" fill="#f59e0b"/>
  
  <!-- Building Base -->
  <rect x="54" y="162" width="84" height="12" fill="#374151" rx="3"/>
  
  <!-- Side Buildings -->
  <rect x="24" y="90" width="24" height="84" fill="#6b7280" rx="3"/>
  <rect x="144" y="105" width="24" height="69" fill="#6b7280" rx="3"/>
  
  <!-- Side Building Windows -->
  <g fill="#e5e7eb">
    <!-- Left building -->
    <rect x="30" y="102" width="6" height="6" rx="1"/>
    <rect x="39" y="102" width="6" height="6" rx="1"/>
    <rect x="30" y="120" width="6" height="6" rx="1"/>
    <rect x="39" y="120" width="6" height="6" rx="1"/>
    <rect x="30" y="138" width="6" height="6" rx="1"/>
    <rect x="39" y="138" width="6" height="6" rx="1"/>
    <rect x="30" y="156" width="6" height="6" rx="1"/>
    <rect x="39" y="156" width="6" height="6" rx="1"/>
    
    <!-- Right building -->
    <rect x="150" y="117" width="6" height="6" rx="1"/>
    <rect x="159" y="117" width="6" height="6" rx="1"/>
    <rect x="150" y="135" width="6" height="6" rx="1"/>
    <rect x="159" y="135" width="6" height="6" rx="1"/>
    <rect x="150" y="153" width="6" height="6" rx="1"/>
    <rect x="159" y="153" width="6" height="6" rx="1"/>
  </g>
  
  <!-- Tower Top Accent -->
  <rect x="60" y="30" width="72" height="6" fill="#1e3a8a" rx="3"/>
</svg>