<svg xmlns="http://www.w3.org/2000/svg" viewBox="0 0 64 64" width="64" height="64">
  <defs>
    <linearGradient id="gradient" x1="0%" y1="0%" x2="100%" y2="100%">
      <stop offset="0%" style="stop-color:#1e40af;stop-opacity:1" />
      <stop offset="100%" style="stop-color:#3b82f6;stop-opacity:1" />
    </linearGradient>
  </defs>
  
  <!-- Main Tower -->
  <rect x="20" y="10" width="24" height="48" fill="url(#gradient)" rx="2"/>
  
  <!-- Tower Windows -->
  <rect x="24" y="16" width="3" height="3" fill="#e5e7eb" rx="0.5"/>
  <rect x="30" y="16" width="3" height="3" fill="#e5e7eb" rx="0.5"/>
  <rect x="37" y="16" width="3" height="3" fill="#e5e7eb" rx="0.5"/>
  
  <rect x="24" y="24" width="3" height="3" fill="#e5e7eb" rx="0.5"/>
  <rect x="30" y="24" width="3" height="3" fill="#e5e7eb" rx="0.5"/>
  <rect x="37" y="24" width="3" height="3" fill="#e5e7eb" rx="0.5"/>
  
  <rect x="24" y="32" width="3" height="3" fill="#e5e7eb" rx="0.5"/>
  <rect x="30" y="32" width="3" height="3" fill="#e5e7eb" rx="0.5"/>
  <rect x="37" y="32" width="3" height="3" fill="#e5e7eb" rx="0.5"/>
  
  <rect x="24" y="40" width="3" height="3" fill="#e5e7eb" rx="0.5"/>
  <rect x="30" y="40" width="3" height="3" fill="#e5e7eb" rx="0.5"/>
  <rect x="37" y="40" width="3" height="3" fill="#e5e7eb" rx="0.5"/>
  
  <!-- Key Symbol -->
  <circle cx="50" cy="20" r="6" fill="#fbbf24" stroke="#f59e0b" stroke-width="1"/>
  <rect x="47" y="22" width="6" height="2" fill="#f59e0b" rx="1"/>
  <rect x="51" y="20" width="2" height="2" fill="#f59e0b"/>
  <rect x="51" y="24" width="2" height="1" fill="#f59e0b"/>
  
  <!-- Building Base -->
  <rect x="18" y="54" width="28" height="4" fill="#374151" rx="1"/>
  
  <!-- Side Buildings -->
  <rect x="8" y="30" width="8" height="28" fill="#6b7280" rx="1"/>
  <rect x="48" y="35" width="8" height="23" fill="#6b7280" rx="1"/>
  
  <!-- Side Building Windows -->
  <rect x="10" y="34" width="2" height="2" fill="#e5e7eb" rx="0.3"/>
  <rect x="13" y="34" width="2" height="2" fill="#e5e7eb" rx="0.3"/>
  <rect x="10" y="40" width="2" height="2" fill="#e5e7eb" rx="0.3"/>
  <rect x="13" y="40" width="2" height="2" fill="#e5e7eb" rx="0.3"/>
  <rect x="10" y="46" width="2" height="2" fill="#e5e7eb" rx="0.3"/>
  <rect x="13" y="46" width="2" height="2" fill="#e5e7eb" rx="0.3"/>
  
  <rect x="50" y="39" width="2" height="2" fill="#e5e7eb" rx="0.3"/>
  <rect x="53" y="39" width="2" height="2" fill="#e5e7eb" rx="0.3"/>
  <rect x="50" y="45" width="2" height="2" fill="#e5e7eb" rx="0.3"/>
  <rect x="53" y="45" width="2" height="2" fill="#e5e7eb" rx="0.3"/>
</svg>